HIERARCHY
ROOT Root
{
  OFFSET 0.0 0.0 0.0
  CHANNELS 6 Xposition Yposition Zposition Zrotation Yrotation Xrotation
  JOINT Hips
  {
    OFFSET 0.0 100.0 0.0
    CHANNELS 6 Xposition Yposition Zposition Zrotation Yrotation Xrotation
    JOINT Spine1
    {
      OFFSET -0.013727 5.003763 -0.053727
      CHANNELS 3 Zrotation Yrotation Xrotation
      JOINT Spine2
      {
        OFFSET -0.0 7.125301 -0.029825
        CHANNELS 3 Zrotation Yrotation Xrotation
        JOINT Chest
        {
          OFFSET -1e-06 7.550063 -0.815971
          CHANNELS 3 Zrotation Yrotation Xrotation
          JOINT Neck1
          {
            OFFSET -0.181677 26.311295 -0.553348
            CHANNELS 3 Zrotation Yrotation Xrotation
            JOINT Neck2
            {
              OFFSET -3e-06 7.709397 2.302585
              CHANNELS 3 Zrotation Yrotation Xrotation
              JOINT Head
              {
                OFFSET -5e-06 6.128916 1.953709
                CHANNELS 3 Zrotation Yrotation Xrotation
                JOINT HeadEnd
                {
                  OFFSET 0.003598 16.065403 -1.835379
                  CHANNELS 3 Zrotation Yrotation Xrotation
                }
                JOINT Jaw
                {
                  OFFSET 0.002637 0.475592 3.094941
                  CHANNELS 3 Zrotation Yrotation Xrotation
                }
                JOINT LeftEye
                {
                  OFFSET 3.206381 5.380205 7.586883
                  CHANNELS 3 Zrotation Yrotation Xrotation
                }
                JOINT RightEye
                {
                  OFFSET -3.22244 5.361869 7.558234
                  CHANNELS 3 Zrotation Yrotation Xrotation
                }
              }
            }
          }
          JOINT LeftShoulder
          {
            OFFSET 1.621652 23.237164 5.113413
            CHANNELS 3 Zrotation Yrotation Xrotation
            JOINT LeftArm
            {
              OFFSET 14.919846 2e-06 -5.502326
              CHANNELS 3 Zrotation Yrotation Xrotation
              JOINT LeftForeArm
              {
                OFFSET 28.739307 0.0 -0.002588
                CHANNELS 3 Zrotation Yrotation Xrotation
                JOINT LeftHand
                {
                  OFFSET 27.093981 -1e-06 0.002609
                  CHANNELS 3 Zrotation Yrotation Xrotation
                  JOINT LeftHandThumb1
                  {
                    OFFSET 2.276482 -1.392045 3.191413
                    CHANNELS 3 Zrotation Yrotation Xrotation
                    JOINT LeftHandThumb2
                    {
                      OFFSET 4.012836 -1.828127 1.641654
                      CHANNELS 3 Zrotation Yrotation Xrotation
                      JOINT LeftHandThumb3
                      {
                        OFFSET 2.798515 0.0 -3e-06
                        CHANNELS 3 Zrotation Yrotation Xrotation
                        JOINT LeftHandThumbEnd
                        {
                          OFFSET 3.180793 -4e-06 4e-06
                          CHANNELS 3 Zrotation Yrotation Xrotation
                        }
                      }
                    }
                  }
                  JOINT LeftHandIndex1
                  {
                    OFFSET 3.247555 -0.531998 2.296169
                    CHANNELS 3 Zrotation Yrotation Xrotation
                    JOINT LeftHandIndex2
                    {
                      OFFSET 6.364578 0.01206 0.1786
                      CHANNELS 3 Zrotation Yrotation Xrotation
                      JOINT LeftHandIndex3
                      {
                        OFFSET 3.662364 0.0 0.0
                        CHANNELS 3 Zrotation Yrotation Xrotation
                        JOINT LeftHandIndex4
                        {
                          OFFSET 2.329242 4e-06 4e-06
                          CHANNELS 3 Zrotation Yrotation Xrotation
                          JOINT LeftHandIndexEnd
                          {
                            OFFSET 2.759615 -0.180537 -0.113024
                            CHANNELS 3 Zrotation Yrotation Xrotation
                          }
                        }
                      }
                    }
                  }
                  JOINT LeftHandMiddle1
                  {
                    OFFSET 3.163495 0.240981 1.000332
                    CHANNELS 3 Zrotation Yrotation Xrotation
                    JOINT LeftHandMiddle2
                    {
                      OFFSET 6.19078 -0.259278 -1.002548
                      CHANNELS 3 Zrotation Yrotation Xrotation
                      JOINT LeftHandMiddle3
                      {
                        OFFSET 4.35652 -4e-06 -1e-06
                        CHANNELS 3 Zrotation Yrotation Xrotation
                        JOINT LeftHandMiddle4
                        {
                          OFFSET 2.996877 -8e-06 0.0
                          CHANNELS 3 Zrotation Yrotation Xrotation
                          JOINT LeftHandMiddleEnd
                          {
                            OFFSET 2.304287 -0.294569 -0.031741
                            CHANNELS 3 Zrotation Yrotation Xrotation
                          }
                        }
                      }
                    }
                  }
                  JOINT LeftHandRing1
                  {
                    OFFSET 2.882643 -0.053652 -0.322543
                    CHANNELS 3 Zrotation Yrotation Xrotation
                    JOINT LeftHandRing2
                    {
                      OFFSET 5.854541 -0.486202 -1.373841
                      CHANNELS 3 Zrotation Yrotation Xrotation
                      JOINT LeftHandRing3
                      {
                        OFFSET 4.350578 0.0 3e-06
                        CHANNELS 3 Zrotation Yrotation Xrotation
                        JOINT LeftHandRing4
                        {
                          OFFSET 2.651321 7e-06 2e-06
                          CHANNELS 3 Zrotation Yrotation Xrotation
                          JOINT LeftHandRingEnd
                          {
                            OFFSET 1.936105 0.077687 -7.1e-05
                            CHANNELS 3 Zrotation Yrotation Xrotation
                          }
                        }
                      }
                    }
                  }
                  JOINT LeftHandPinky1
                  {
                    OFFSET 2.8655 -0.310005 -1.600378
                    CHANNELS 3 Zrotation Yrotation Xrotation
                    JOINT LeftHandPinky2
                    {
                      OFFSET 5.087849 -1.331141 -1.77123
                      CHANNELS 3 Zrotation Yrotation Xrotation
                      JOINT LeftHandPinky3
                      {
                        OFFSET 3.070974 4e-06 0.0
                        CHANNELS 3 Zrotation Yrotation Xrotation
                        JOINT LeftHandPinky4
                        {
                          OFFSET 1.549672 0.0 1e-06
                          CHANNELS 3 Zrotation Yrotation Xrotation
                          JOINT LeftHandPinkyEnd
                          {
                            OFFSET 1.944893 -0.157802 0.057219
                            CHANNELS 3 Zrotation Yrotation Xrotation
                          }
                        }
                      }
                    }
                  }
                }
              }
            }
          }
          JOINT RightShoulder
          {
            OFFSET -1.380118 23.180309 5.214158
            CHANNELS 3 Zrotation Yrotation Xrotation
            JOINT RightArm
            {
              OFFSET -15.037196 1.2e-05 -5.545604
              CHANNELS 3 Zrotation Yrotation Xrotation
              JOINT RightForeArm
              {
                OFFSET -28.736639 2e-06 -0.002597
                CHANNELS 3 Zrotation Yrotation Xrotation
                JOINT RightHand
                {
                  OFFSET -27.133619 -0.0 0.002613
                  CHANNELS 3 Zrotation Yrotation Xrotation
                  JOINT RightHandThumb1
                  {
                    OFFSET -2.274032 -1.383988 3.163127
                    CHANNELS 3 Zrotation Yrotation Xrotation
                    JOINT RightHandThumb2
                    {
                      OFFSET -4.011429 -1.827466 1.640914
                      CHANNELS 3 Zrotation Yrotation Xrotation
                      JOINT RightHandThumb3
                      {
                        OFFSET -2.794935 -4e-06 -3e-06
                        CHANNELS 3 Zrotation Yrotation Xrotation
                        JOINT RightHandThumbEnd
                        {
                          OFFSET -3.183852 4e-06 1e-06
                          CHANNELS 3 Zrotation Yrotation Xrotation
                        }
                      }
                    }
                  }
                  JOINT RightHandIndex1
                  {
                    OFFSET -3.253266 -0.520057 2.282866
                    CHANNELS 3 Zrotation Yrotation Xrotation
                    JOINT RightHandIndex2
                    {
                      OFFSET -6.341917 0.012471 0.178266
                      CHANNELS 3 Zrotation Yrotation Xrotation
                      JOINT RightHandIndex3
                      {
                        OFFSET -3.654871 -8e-06 -0.0
                        CHANNELS 3 Zrotation Yrotation Xrotation
                        JOINT RightHandIndex4
                        {
                          OFFSET -2.327586 0.0 1e-06
                          CHANNELS 3 Zrotation Yrotation Xrotation
                          JOINT RightHandIndexEnd
                          {
                            OFFSET -2.76179 -0.180656 -0.113078
                            CHANNELS 3 Zrotation Yrotation Xrotation
                          }
                        }
                      }
                    }
                  }
                  JOINT RightHandMiddle1
                  {
                    OFFSET -3.168106 0.246593 1.00103
                    CHANNELS 3 Zrotation Yrotation Xrotation
                    JOINT RightHandMiddle2
                    {
                      OFFSET -6.180828 -0.258836 -1.000895
                      CHANNELS 3 Zrotation Yrotation Xrotation
                      JOINT RightHandMiddle3
                      {
                        OFFSET -4.348901 0.0 -0.0
                        CHANNELS 3 Zrotation Yrotation Xrotation
                        JOINT RightHandMiddle4
                        {
                          OFFSET -3.00024 -4e-06 -2e-06
                          CHANNELS 3 Zrotation Yrotation Xrotation
                          JOINT RightHandMiddleEnd
                          {
                            OFFSET -2.30252 -0.29437 -0.031706
                            CHANNELS 3 Zrotation Yrotation Xrotation
                          }
                        }
                      }
                    }
                  }
                  JOINT RightHandRing1
                  {
                    OFFSET -2.88569 -0.067952 -0.308858
                    CHANNELS 3 Zrotation Yrotation Xrotation
                    JOINT RightHandRing2
                    {
                      OFFSET -5.854198 -0.48613 -1.373731
                      CHANNELS 3 Zrotation Yrotation Xrotation
                      JOINT RightHandRing3
                      {
                        OFFSET -4.33881 -4e-06 -0.0
                        CHANNELS 3 Zrotation Yrotation Xrotation
                        JOINT RightHandRing4
                        {
                          OFFSET -2.654903 -4e-06 4e-06
                          CHANNELS 3 Zrotation Yrotation Xrotation
                          JOINT RightHandRingEnd
                          {
                            OFFSET -1.933568 0.077527 -5.2e-05
                            CHANNELS 3 Zrotation Yrotation Xrotation
                          }
                        }
                      }
                    }
                  }
                  JOINT RightHandPinky1
                  {
                    OFFSET -2.866425 -0.342796 -1.584145
                    CHANNELS 3 Zrotation Yrotation Xrotation
                    JOINT RightHandPinky2
                    {
                      OFFSET -5.091371 -1.332055 -1.772385
                      CHANNELS 3 Zrotation Yrotation Xrotation
                      JOINT RightHandPinky3
                      {
                        OFFSET -3.062664 -4e-06 1e-06
                        CHANNELS 3 Zrotation Yrotation Xrotation
                        JOINT RightHandPinky4
                        {
                          OFFSET -1.546529 4e-06 -2e-06
                          CHANNELS 3 Zrotation Yrotation Xrotation
                          JOINT RightHandPinkyEnd
                          {
                            OFFSET -1.945119 -0.157718 0.057211
                            CHANNELS 3 Zrotation Yrotation Xrotation
                          }
                        }
                      }
                    }
                  }
                }
              }
            }
          }
        }
      }
    }
    JOINT LeftLeg
    {
      OFFSET 10.043214 -8.434526 2.595655
      CHANNELS 3 Zrotation Yrotation Xrotation
      JOINT LeftShin
      {
        OFFSET -1e-06 -43.221752 -0.802913
        CHANNELS 3 Zrotation Yrotation Xrotation
        JOINT LeftFoot
        {
          OFFSET 1e-06 -42.155094 -3.481523
          CHANNELS 3 Zrotation Yrotation Xrotation
          JOINT LeftToeBase
          {
            OFFSET 0.0 -5.059472 13.231529
            CHANNELS 3 Zrotation Yrotation Xrotation
            JOINT LeftToeEnd
            {
              OFFSET -0.009607 -1.647619 6.513017
              CHANNELS 3 Zrotation Yrotation Xrotation
            }
          }
        }
      }
    }
    JOINT RightLeg
    {
      OFFSET -10.047278 -8.29526 2.620317
      CHANNELS 3 Zrotation Yrotation Xrotation
      JOINT RightShin
      {
        OFFSET 1e-06 -43.362206 -0.805556
        CHANNELS 3 Zrotation Yrotation Xrotation
        JOINT RightFoot
        {
          OFFSET 2e-06 -42.117393 -3.478398
          CHANNELS 3 Zrotation Yrotation Xrotation
          JOINT RightToeBase
          {
            OFFSET -0.0 -5.079609 13.284196
            CHANNELS 3 Zrotation Yrotation Xrotation
            JOINT RightToeEnd
            {
              OFFSET 0.009532 -1.634378 6.460591
              CHANNELS 3 Zrotation Yrotation Xrotation
            }
          }
        }
      }
    }
  }
}
MOTION
Frames: 4
Frame Time: 0.03333333333333333
0.0 0.0 0.0 0.0 -0.0 0.0 -144.941162 89.57795 929.077881 0.104739 -37.669434 16.472448 -1.109005 0.22213 10.610785 -0.563409 1.64714 -1.140194 0.558017 0.119017 6.8972 3.210997 2.367152 -6.55318 -0.275487 1.446721 -3.595509 -2.597479 2.01769 1.158389 7.7e-05 -2.1e-05 5e-06 -0.018703 0.04012 -0.163253 0.689971 -3.719043 -10.759494 -0.731274 3.790802 -10.695946 26.237221 -28.619886 -10.329729 8.956016 -42.006435 -80.122238 2.439577 -24.885653 -0.74063 0.481006 -2.707566 -59.952293 -5.882109 9.861291 0.702593 -10.936875 -0.360575 7.156211 2e-06 8.77483 0.0 -16.492321 19.019415 6.449795 -1.844034 2.498505 -2.507278 -10.163602 4.678948 4.621113 -20.976034 -3e-06 7e-06 -21.226294 2.451699 -3.593997 0.0 -6e-06 -0.0 -1.362683 2.240799 -0.746324 -21.334923 0.584911 3.008329 -13.821218 -2e-06 5e-06 -23.887178 -0.249075 -0.839478 -61.194595 2.812999 -1.514981 -0.294024 1.679688 0.833256 -14.218212 0.093214 1.300584 -34.212055 -0.28756 0.967179 -20.03322 0.96454 1.212847 0.0 1e-06 -0.0 -3.440391 0.788233 0.501657 -15.928198 -3.167312 2.999711 -6.33883 -1e-06 2e-06 -18.123457 3.648186 -4.905669 -4e-06 1e-06 -2e-06 -37.289883 44.92234 -21.329386 -33.804264 49.137642 -81.69455 -1.334277 13.875225 -0.37861 -15.692185 -7.907543 -42.857418 2.243542 -5.25504 -3.180159 14.282902 -0.826596 6.952508 -2e-06 -12.690613 0.0 15.583287 -17.445353 2.781361 1.665669 -1.955922 -2.8783 4.727803 -4.170591 4.993927 11.020535 2e-06 0.0 12.10906 -3.73572 -2.866786 0.0 0.0 -0.0 1.291985 -1.928551 -1.49809 14.800139 0.567468 3.865611 14.242581 -1.341737 -6.660661 19.631975 0.143924 -0.648244 49.556271 -0.739119 -5.967284 0.353029 -1.511152 -0.03194 20.222803 3.684313 2.316634 18.787287 2e-06 0.0 10.751634 -0.47987 1.397907 1e-06 -0.0 -1e-06 3.273808 0.305947 -0.58011 21.48683 11.830382 2.266137 8.162933 2e-06 -0.0 18.399094 -3.798987 -4.940578 3e-06 -1e-06 -1e-06 -1.454513 23.221495 -59.592213 -0.327768 -0.233259 42.329971 -6.198967 -4.705205 1.653554 1.621442 -1.843468 2.150008 0.0 0.0 2e-06 -14.629311 -8.249913 -29.923746 0.254103 0.807826 45.739609 16.743973 6.493566 -28.036566 -1.405067 0.93584 2.422486 -0.0 0.0 -1e-06 
0.0 0.0 0.0 0.0 -0.0 0.0 -144.952744 89.508011 928.849426 0.05183 -37.765026 16.390125 -1.113686 0.243371 10.630398 -0.555381 1.643867 -1.120054 0.548577 0.150202 6.930433 3.197569 2.340811 -6.507071 -0.260793 1.53666 -3.58659 -2.66677 2.094333 1.036261 7.7e-05 -2.1e-05 5e-06 -0.021129 0.048819 -0.157573 0.687267 -3.708467 -10.752983 -0.733525 3.797415 -10.686854 26.199913 -28.490511 -10.309559 8.888584 -42.022076 -80.163071 2.305946 -24.969496 -0.703844 0.531734 -2.547857 -59.870838 -5.882107 9.861288 0.702591 -10.936873 -0.360576 7.156208 0.0 8.774828 -1e-06 -16.477568 19.054499 6.479288 -1.844033 2.498504 -2.507279 -10.1636 4.678945 4.621109 -20.976027 -3e-06 3e-06 -21.226288 2.451698 -3.593999 0.0 -5e-06 -0.0 -1.362684 2.240799 -0.746323 -21.334917 0.58491 3.008326 -13.821217 -3e-06 3e-06 -23.887175 -0.249079 -0.839482 -61.203995 2.819738 -1.518903 -0.294026 1.679688 0.833255 -14.218212 0.093214 1.300581 -34.212051 -0.287563 0.967172 -20.033216 0.964538 1.212845 0.0 2e-06 -0.0 -3.440389 0.788233 0.501656 -15.928191 -3.167311 2.999709 -6.338827 -1e-06 1e-06 -18.123451 3.648184 -4.905671 -4e-06 -0.0 -2e-06 -37.296101 44.912468 -21.335886 -33.808193 49.188675 -81.835823 -1.318933 13.864928 -0.362334 -15.625613 -7.816948 -42.843491 2.243541 -5.255038 -3.180159 14.282898 -0.826595 6.952508 -2e-06 -12.690606 0.0 15.557384 -17.434273 2.795321 1.665668 -1.955923 -2.8783 4.727802 -4.170589 4.993927 11.020531 2e-06 1e-06 12.109056 -3.735718 -2.866783 -0.0 -0.0 -0.0 1.291986 -1.92855 -1.49809 14.800136 0.567467 3.865612 14.242577 -1.341737 -6.660659 19.631973 0.143923 -0.648243 49.583767 -0.751687 -5.975232 0.35303 -1.51115 -0.03194 20.222803 3.684309 2.316635 18.787287 2e-06 2e-06 10.751634 -0.479871 1.397908 1e-06 -0.0 -0.0 3.273808 0.305948 -0.58011 21.486826 11.830376 2.266139 8.162933 2e-06 1e-06 18.399096 -3.798986 -4.940574 2e-06 -1e-06 -1e-06 -1.338823 23.3736 -59.570621 -0.325877 -0.236728 42.287647 -6.261272 -4.712173 1.76336 1.61917 -1.847056 2.16081 0.0 0.0 2e-06 -14.506702 -8.248569 -30.140074 0.262234 0.808572 46.101566 16.538254 6.521647 -28.150629 -1.404666 0.932784 2.44193 -0.0 0.0 -1e-06 
0.0 0.0 0.0 0.0 -0.0 0.0 -144.957108 89.43605 928.568176 0.004312 -37.845066 16.303558 -1.112932 0.261876 10.664487 -0.548859 1.64007 -1.111375 0.534884 0.176539 6.970161 3.174048 2.333024 -6.470058 -0.259896 1.594934 -3.588629 -2.710238 2.154396 0.887337 7.7e-05 -2.1e-05 5e-06 -0.019562 0.048628 -0.15468 0.691036 -3.70532 -10.746069 -0.734266 3.793861 -10.674943 26.155781 -28.363083 -10.294188 8.87243 -42.054966 -80.145515 2.249058 -25.016541 -0.686951 0.620395 -2.404487 -59.907516 -5.882108 9.861292 0.702591 -10.936873 -0.360575 7.156209 2e-06 8.774831 -1e-06 -16.478771 19.083298 6.497445 -1.844031 2.498506 -2.50728 -10.1636 4.678947 4.62111 -20.976027 -4e-06 3e-06 -21.226288 2.451698 -3.594002 0.0 -5e-06 -0.0 -1.362683 2.240799 -0.746324 -21.334917 0.584908 3.008325 -13.821217 -2e-06 2e-06 -23.887177 -0.249079 -0.839483 -61.231533 2.825306 -1.534871 -0.294025 1.679689 0.833256 -14.21821 0.093213 1.300581 -34.212055 -0.287565 0.967173 -20.033216 0.964537 1.212844 -1e-06 1e-06 -0.0 -3.44039 0.788234 0.501656 -15.928191 -3.167312 2.999709 -6.338831 -1e-06 1e-06 -18.123453 3.648185 -4.905673 -4e-06 -0.0 -2e-06 -37.34557 44.907433 -21.392788 -33.797432 49.21431 -81.885521 -1.317444 13.796653 -0.343557 -15.567739 -7.706851 -42.919964 2.243542 -5.255041 -3.180159 14.282896 -0.826595 6.952508 -2e-06 -12.690611 -1e-06 15.534026 -17.439322 2.804357 1.665666 -1.955922 -2.8783 4.7278 -4.170589 4.993927 11.02053 3e-06 0.0 12.109056 -3.735718 -2.866785 0.0 -0.0 -0.0 1.291985 -1.928551 -1.49809 14.800132 0.567469 3.865611 14.242577 -1.341738 -6.660661 19.631973 0.143925 -0.648243 49.591972 -0.780711 -5.990374 0.353029 -1.511152 -0.03194 20.222801 3.684312 2.316635 18.787281 2e-06 1e-06 10.751632 -0.47987 1.397908 -0.0 -0.0 -0.0 3.273807 0.305948 -0.58011 21.48682 11.830381 2.266139 8.16293 3e-06 0.0 18.399088 -3.798988 -4.940574 3e-06 -1e-06 -1e-06 -1.21155 23.503519 -59.560215 -0.325385 -0.241909 42.200665 -6.316429 -4.69802 1.959707 1.618023 -1.844555 2.199528 -0.0 -1e-06 2e-06 -14.362522 -8.272498 -30.418619 0.274441 0.815322 46.53804 16.33124 6.54832 -28.266512 -1.402509 0.931894 2.469599 0.0 0.0 -1e-06 
0.0 0.0 0.0 0.0 -0.0 0.0 -144.959717 89.359787 928.263733 -0.040609 -37.900574 16.210972 -1.102985 0.274894 10.708101 -0.540975 1.634271 -1.108927 0.511915 0.195591 7.017441 3.13285 2.326819 -6.444678 -0.25575 1.616972 -3.589497 -2.747195 2.214776 0.729576 7.6e-05 -2.2e-05 6e-06 -0.01863 0.048339 -0.153538 0.69471 -3.704281 -10.745399 -0.73603 3.791991 -10.668766 26.131056 -28.242258 -10.294167 8.832055 -42.100868 -80.052773 2.258229 -25.072037 -0.696772 0.763082 -2.253809 -59.919804 -5.882109 9.861293 0.702594 -10.93688 -0.360575 7.156212 1e-06 8.774835 0.0 -16.481102 19.092682 6.503687 -1.844034 2.498506 -2.507279 -10.163605 4.678948 4.621114 -20.976038 -3e-06 7e-06 -21.226299 2.451701 -3.593999 1e-06 -5e-06 -0.0 -1.362682 2.240799 -0.746324 -21.334929 0.58491 3.008329 -13.821222 -1e-06 5e-06 -23.887184 -0.249077 -0.839479 -61.262882 2.821599 -1.552885 -0.294025 1.679689 0.833257 -14.218219 0.093215 1.300584 -34.212074 -0.287561 0.967178 -20.03323 0.964541 1.212847 0.0 1e-06 -0.0 -3.44039 0.788233 0.501656 -15.928201 -3.167313 2.999712 -6.33883 -2e-06 2e-06 -18.123457 3.648188 -4.905669 -4e-06 -0.0 -2e-06 -37.387115 44.930916 -21.45756 -33.772732 49.20594 -81.880844 -1.319478 13.723287 -0.322247 -15.526075 -7.589612 -42.988316 2.243543 -5.255041 -3.18016 14.282904 -0.826598 6.952514 -1e-06 -12.690617 1e-06 15.527637 -17.457439 2.820242 1.665668 -1.955924 -2.878302 4.727805 -4.170592 4.993931 11.020536 1e-06 1e-06 12.109062 -3.735721 -2.866785 -0.0 -0.0 -0.0 1.291987 -1.928551 -1.498091 14.800142 0.567466 3.865616 14.242584 -1.341739 -6.660662 19.631985 0.143922 -0.648243 49.586544 -0.81659 -5.990562 0.35303 -1.511151 -0.03194 20.222807 3.684309 2.316638 18.787289 -1e-06 2e-06 10.751637 -0.479872 1.397909 -0.0 -0.0 -1e-06 3.273809 0.305947 -0.58011 21.486834 11.830383 2.26614 8.162936 1e-06 1e-06 18.399099 -3.798994 -4.940577 3e-06 -1e-06 -1e-06 -1.084805 23.624722 -59.54512 -0.329854 -0.248689 42.074558 -6.39287 -4.67605 2.174618 1.619457 -1.840171 2.249521 -0.0 -1e-06 2e-06 -14.206731 -8.304508 -30.711184 0.286179 0.820646 47.004498 16.130733 6.587358 -28.385799 -1.399947 0.935456 2.504841 -0.0 0.0 -1e-06 
